<?xml version="1.0" encoding="utf-8"?>
<!-- Generator: Adobe Illustrator 25.4.0, SVG Export Plug-In . SVG Version: 6.00 Build 0)  -->
<svg version="1.1" id="Layer_1" xmlns="http://www.w3.org/2000/svg" xmlns:xlink="http://www.w3.org/1999/xlink" x="0px" y="0px"
	 viewBox="0 0 96 96" style="enable-background:new 0 0 96 96;" xml:space="preserve">
<style type="text/css">
	.st0{fill:#FFFFFF;stroke:#000000;stroke-width:0.25;stroke-miterlimit:10;}
	.st1{fill:#619AD3;}
	.st2{fill:#FFFFFF;}
</style>
<g>
	<circle class="st0" cx="48" cy="48" r="31.69"/>
	<circle class="st1" cx="48" cy="48" r="29.19"/>
</g>
<g>
	<path class="st2" d="M49.82,37.92c-5.7,0-8.6,5.86-8.6,10.88c0,3.68,1.87,6.63,5.81,6.63c1.24,0,3.99-0.26,4.87-1.3l0.41-2.49
		h-5.24l1.4-8.76h16.28l-2.49,15.96c-5.44,4.46-9.85,6.27-17,6.27c-9.07,0-15.6-5.29-15.6-14.72c0-12.8,8.71-22.13,21.67-22.13
		c5.75,0,10,1.66,13.53,6.27l-8.55,6.53C54.64,39.01,52.47,37.92,49.82,37.92z"/>
</g>
<g>
</g>
<g>
</g>
<g>
</g>
<g>
</g>
<g>
</g>
<g>
</g>
</svg>
